<?xml version="1.0" standalone="no"?><!DOCTYPE svg PUBLIC "-//W3C//DTD SVG 1.1//EN" "http://www.w3.org/Graphics/SVG/1.1/DTD/svg11.dtd"><svg t="1606632646518" class="icon" viewBox="0 0 1024 1024" version="1.1" xmlns="http://www.w3.org/2000/svg" p-id="8424" xmlns:xlink="http://www.w3.org/1999/xlink" width="200" height="200"><defs><style type="text/css"></style></defs><path d="M128 213.333333C128 166.4 166.4 128 213.333333 128L810.666667 128C857.6 128 896 166.4 896 213.333333L896 810.666667C896 857.6 857.6 896 810.666667 896L213.333333 896C165.973333 896 128 857.6 128 810.666667L128 213.333333M256 256 256 768 426.666667 768 426.666667 682.666667 341.333333 682.666667 341.333333 341.333333 426.666667 341.333333 426.666667 256 256 256M682.666667 682.666667 597.333333 682.666667 597.333333 768 768 768 768 256 597.333333 256 597.333333 341.333333 682.666667 341.333333 682.666667 682.666667Z" p-id="8425"></path></svg>