<?xml version="1.0" standalone="no"?><!DOCTYPE svg PUBLIC "-//W3C//DTD SVG 1.1//EN" "http://www.w3.org/Graphics/SVG/1.1/DTD/svg11.dtd"><svg t="1563782191748" class="icon" viewBox="0 0 1024 1024" version="1.1" xmlns="http://www.w3.org/2000/svg" p-id="1982" xmlns:xlink="http://www.w3.org/1999/xlink" width="200" height="200"><defs><style type="text/css"></style></defs><path d="M524 1008c-8 0-16 0-24-0.8-105.6-6.4-202.4-52.8-272.8-132-64.8-72.8-100-166.4-100-264 0-90.4 22.4-185.6 65.6-281.6 4-8 12.8-12 20.8-8s12 12.8 8 20.8C180.8 435.2 160 525.6 160 611.2c0 89.6 32 176 92 242.4 64.8 72.8 153.6 116 250.4 121.6s190.4-26.4 263.2-91.2c6.4-5.6 16.8-5.6 22.4 1.6s5.6 16.8-1.6 22.4c-72.8 64.8-164.8 100-262.4 100z m359.2-256.8c-1.6 0-3.2 0-4.8-0.8-8-3.2-12.8-12-9.6-20 12.8-38.4 20-78.4 20-119.2C888 399.2 717.6 48 524 48c-70.4 0-129.6 35.2-191.2 113.6-5.6 7.2-15.2 8-22.4 2.4-7.2-5.6-8-15.2-2.4-22.4C375.2 56 444 16 524 16 752.8 16 920 407.2 920 611.2c0 44-7.2 88-21.6 129.6-2.4 6.4-8 10.4-15.2 10.4z" fill="#27B1BD" p-id="1983"></path><path d="M532 836.8C388.8 836.8 272 720 272 576.8 272 436.8 440 184 532 184 621.6 184 792 440.8 792 576.8c0 143.2-116.8 260-260 260z m0-620.8C470.4 216 304 439.2 304 576.8c0 125.6 102.4 228 228 228S760 702.4 760 576.8C760 443.2 592 216 532 216zM272 336c-48.8 0-88-39.2-88-88s39.2-88 88-88 88 39.2 88 88-39.2 88-88 88z m0-144c-31.2 0-56 24.8-56 56s24.8 56 56 56 56-24.8 56-56-24.8-56-56-56z" fill="#27B1BD" p-id="1984"></path><path d="M630.4 523.2c42.4 56.8 30.4 136.8-26.4 179.2s-136.8 30.4-179.2-26.4c-23.2-31.2-35.2-70.4-25.6-108m0.8 0c21.6-2.4 54.4 20.8 80 16 90.4-16 101.6-60.8 150.4-60.8" fill="#53DBEA" p-id="1985"></path><path d="M842.4 893.6c-41.6 0-75.2-33.6-75.2-75.2s33.6-75.2 75.2-75.2 75.2 33.6 75.2 75.2c-0.8 41.6-34.4 75.2-75.2 75.2z m0-117.6c-24 0-43.2 19.2-43.2 43.2s19.2 43.2 43.2 43.2 43.2-19.2 43.2-43.2-20-43.2-43.2-43.2z" fill="#27B1BD" p-id="1986"></path></svg>